<mxfile host="Electron" agent="Mozilla/5.0 (Windows NT 10.0; Win64; x64) AppleWebKit/537.36 (KHTML, like Gecko) draw.io/28.1.2 Chrome/138.0.7204.243 Electron/37.4.0 Safari/537.36" version="28.1.2">
  <diagram name="Seite-1" id="EpJtv_yCttcwf_7BdGCW">
    <mxGraphModel dx="1036" dy="832" grid="1" gridSize="10" guides="1" tooltips="1" connect="1" arrows="1" fold="1" page="1" pageScale="1" pageWidth="827" pageHeight="1169" math="0" shadow="0">
      <root>
        <mxCell id="0" />
        <mxCell id="1" parent="0" />
        <mxCell id="wVIQMLbd9FJlx_xj-_54-2" value="Hello Meister!" style="text;html=1;align=center;verticalAlign=middle;whiteSpace=wrap;rounded=0;fontSize=24;fontStyle=1" vertex="1" parent="1">
          <mxGeometry x="60" y="30" width="160" height="30" as="geometry" />
        </mxCell>
        <mxCell id="wVIQMLbd9FJlx_xj-_54-9" style="edgeStyle=orthogonalEdgeStyle;rounded=0;orthogonalLoop=1;jettySize=auto;html=1;entryX=0.5;entryY=0;entryDx=0;entryDy=0;" edge="1" parent="1" source="wVIQMLbd9FJlx_xj-_54-3" target="wVIQMLbd9FJlx_xj-_54-5">
          <mxGeometry relative="1" as="geometry" />
        </mxCell>
        <mxCell id="wVIQMLbd9FJlx_xj-_54-3" value="Start" style="ellipse;whiteSpace=wrap;html=1;aspect=fixed;" vertex="1" parent="1">
          <mxGeometry x="110" y="110" width="80" height="80" as="geometry" />
        </mxCell>
        <mxCell id="wVIQMLbd9FJlx_xj-_54-5" value="print: What is your name?" style="rounded=1;whiteSpace=wrap;html=1;" vertex="1" parent="1">
          <mxGeometry x="90" y="230" width="120" height="60" as="geometry" />
        </mxCell>
        <mxCell id="wVIQMLbd9FJlx_xj-_54-6" value="input : name" style="shape=parallelogram;perimeter=parallelogramPerimeter;whiteSpace=wrap;html=1;fixedSize=1;" vertex="1" parent="1">
          <mxGeometry x="80" y="340" width="120" height="60" as="geometry" />
        </mxCell>
        <mxCell id="wVIQMLbd9FJlx_xj-_54-12" style="edgeStyle=orthogonalEdgeStyle;rounded=0;orthogonalLoop=1;jettySize=auto;html=1;entryX=0.5;entryY=0;entryDx=0;entryDy=0;" edge="1" parent="1" source="wVIQMLbd9FJlx_xj-_54-7" target="wVIQMLbd9FJlx_xj-_54-8">
          <mxGeometry relative="1" as="geometry" />
        </mxCell>
        <mxCell id="wVIQMLbd9FJlx_xj-_54-7" value="print: Hello Meister name" style="rounded=1;whiteSpace=wrap;html=1;" vertex="1" parent="1">
          <mxGeometry x="90" y="450" width="120" height="60" as="geometry" />
        </mxCell>
        <mxCell id="wVIQMLbd9FJlx_xj-_54-8" value="End" style="ellipse;whiteSpace=wrap;html=1;aspect=fixed;" vertex="1" parent="1">
          <mxGeometry x="110" y="580" width="80" height="80" as="geometry" />
        </mxCell>
        <mxCell id="wVIQMLbd9FJlx_xj-_54-10" style="edgeStyle=orthogonalEdgeStyle;rounded=0;orthogonalLoop=1;jettySize=auto;html=1;entryX=0.583;entryY=0.05;entryDx=0;entryDy=0;entryPerimeter=0;" edge="1" parent="1" source="wVIQMLbd9FJlx_xj-_54-5" target="wVIQMLbd9FJlx_xj-_54-6">
          <mxGeometry relative="1" as="geometry" />
        </mxCell>
        <mxCell id="wVIQMLbd9FJlx_xj-_54-11" style="edgeStyle=orthogonalEdgeStyle;rounded=0;orthogonalLoop=1;jettySize=auto;html=1;entryX=0.417;entryY=-0.033;entryDx=0;entryDy=0;entryPerimeter=0;" edge="1" parent="1" source="wVIQMLbd9FJlx_xj-_54-6" target="wVIQMLbd9FJlx_xj-_54-7">
          <mxGeometry relative="1" as="geometry" />
        </mxCell>
        <mxCell id="wVIQMLbd9FJlx_xj-_54-13" value="&lt;h1 style=&quot;margin-top: 0px;&quot;&gt;Pseudo Code&lt;/h1&gt;&lt;p&gt;START&lt;/p&gt;&lt;p&gt;&lt;span style=&quot;white-space: pre;&quot;&gt;&#x9;&lt;/span&gt;SET name : null&lt;/p&gt;&lt;p&gt;&lt;span style=&quot;white-space: pre;&quot;&gt;&#x9;&lt;/span&gt;PRINT : What is your name?&lt;br&gt;&lt;/p&gt;&lt;p&gt;&lt;span style=&quot;white-space: pre;&quot;&gt;&#x9;&lt;/span&gt;GET name&lt;br&gt;&lt;/p&gt;&lt;p&gt;&lt;span style=&quot;white-space: pre;&quot;&gt;&#x9;&lt;/span&gt;PRINT : Hello Meister + name&lt;br&gt;&lt;/p&gt;&lt;p&gt;END&lt;/p&gt;" style="text;html=1;whiteSpace=wrap;overflow=hidden;rounded=0;" vertex="1" parent="1">
          <mxGeometry x="340" y="240" width="280" height="310" as="geometry" />
        </mxCell>
      </root>
    </mxGraphModel>
  </diagram>
</mxfile>
